<?xml version="1.0" encoding="UTF-8" standalone="no"?>
<svg
   xmlns:dc="http://purl.org/dc/elements/1.1/"
   xmlns:cc="http://creativecommons.org/ns#"
   xmlns:rdf="http://www.w3.org/1999/02/22-rdf-syntax-ns#"
   xmlns:svg="http://www.w3.org/2000/svg"
   xmlns="http://www.w3.org/2000/svg"
   xmlns:sodipodi="http://sodipodi.sourceforge.net/DTD/sodipodi-0.dtd"
   xmlns:inkscape="http://www.inkscape.org/namespaces/inkscape"
   width="85.155151mm"
   height="43.566071mm"
   version="1.1"
   id="svg68"
   sodipodi:docname="FUNRUNBYFLEMMING.svg"
   inkscape:version="1.0 (4035a4fb49, 2020-05-01)"
   inkscape:export-filename="C:\Users\Frederik\Downloads\method-draw-image2.png"
   inkscape:export-xdpi="178.97"
   inkscape:export-ydpi="178.97">
  <metadata
     id="metadata74">
    <rdf:RDF>
      <cc:Work
         rdf:about="">
        <dc:format>image/svg+xml</dc:format>
        <dc:type
           rdf:resource="http://purl.org/dc/dcmitype/StillImage" />
        <dc:title />
      </cc:Work>
    </rdf:RDF>
  </metadata>
  <defs
     id="defs72">
    <meshgradient
       inkscape:collect="always"
       id="meshgradient84"
       gradientUnits="userSpaceOnUse"
       x="220.03838"
       y="71.616837">
      <meshrow
         id="meshrow218">
        <meshpatch
           id="meshpatch220">
          <stop
             path="c 41.1045,0  85.2941,6.19997  126.399,6.19997"
             style="stop-color:#ffffff;stop-opacity:1"
             id="stop222" />
          <stop
             path="c 0.000314783,71.4764  -3.08491,136.752  -3.08491,208.228"
             style="stop-color:#000000;stop-opacity:1"
             id="stop224" />
          <stop
             path="c -41.1045,0  -82.209,0  -123.314,0"
             style="stop-color:#ffffff;stop-opacity:1"
             id="stop226" />
          <stop
             path="c 0,-71.4764  0,-142.953  -0.0003,-214.428"
             style="stop-color:#000000;stop-opacity:1"
             id="stop228" />
        </meshpatch>
      </meshrow>
    </meshgradient>
    <meshgradient
       inkscape:collect="always"
       id="meshgradient374"
       gradientUnits="userSpaceOnUse"
       x="220.03838"
       y="71.616837">
      <meshrow
         id="meshrow386">
        <meshpatch
           id="meshpatch384">
          <stop
             id="stop376"
             style="stop-color:#ffffff;stop-opacity:1"
             path="c 41.1045,0  85.2941,6.19997  126.399,6.19997" />
          <stop
             id="stop378"
             style="stop-color:#000000;stop-opacity:1"
             path="c 0.000314783,71.4764  -3.08491,136.752  -3.08491,208.228" />
          <stop
             id="stop380"
             style="stop-color:#ffffff;stop-opacity:1"
             path="c -41.1045,0  -82.209,0  -123.314,0" />
          <stop
             id="stop382"
             style="stop-color:#000000;stop-opacity:1"
             path="c 0,-71.4764  0,-142.953  -0.0003,-214.428" />
        </meshpatch>
      </meshrow>
    </meshgradient>
  </defs>
  <sodipodi:namedview
     inkscape:document-rotation="0"
     pagecolor="#ffffff"
     bordercolor="#666666"
     borderopacity="1"
     objecttolerance="10"
     gridtolerance="10"
     guidetolerance="10"
     inkscape:pageopacity="0"
     inkscape:pageshadow="2"
     inkscape:window-width="1920"
     inkscape:window-height="1017"
     id="namedview70"
     showgrid="false"
     inkscape:zoom="4"
     inkscape:cx="193.44494"
     inkscape:cy="75.154297"
     inkscape:window-x="-8"
     inkscape:window-y="-8"
     inkscape:window-maximized="1"
     inkscape:current-layer="g66"
     fit-margin-top="0"
     fit-margin-left="0"
     fit-margin-right="0"
     fit-margin-bottom="0"
     inkscape:document-units="pc"
     units="mm" />
  <!-- Created with Method Draw - http://github.com/duopixel/Method-Draw/ -->
  <g
     id="g66"
     transform="translate(-147.09592,-86.201757)">
    <title
       id="title51">Layer 1</title>
    <g
       aria-label="RUN"
       transform="scale(0.81897474,1.2210389)"
       id="svg_3"
       style="font-style:normal;font-variant:normal;font-weight:bold;font-stretch:normal;font-size:141.68px;font-family:sans-serif;-inkscape-font-specification:'sans-serif Bold';text-anchor:start;fill:#000000;stroke:#000000;stroke-width:0">
      <path
         d="m 309.54689,102.2318 q 0,-3.874064 -1.59114,-6.641251 -1.59113,-2.767187 -5.46519,-4.35832 -2.69801,-1.106875 -6.29535,-1.314414 -3.59735,-0.276719 -8.37074,-0.276719 h -9.61598 v 27.741054 h 8.1632 q 6.36453,0 10.65367,-0.62262 4.28914,-0.62261 7.19469,-2.83636 2.76719,-2.14457 4.01242,-4.70422 1.31442,-2.62883 1.31442,-6.98715 z m 41.43863,71.46261 H 318.54025 L 290.45329,135.9223 h -12.2448 v 37.77211 H 251.78185 V 70.685863 h 44.55172 q 9.13172,0 15.70379,1.037695 6.57207,1.037695 12.31398,4.49668 5.81109,3.458984 9.2009,8.993358 3.45898,5.465196 3.45898,13.766758 0,11.414646 -5.32683,18.609336 -5.25766,7.19469 -15.08118,11.96808 z"
         style="font-style:normal;font-variant:normal;font-weight:bold;font-stretch:normal;font-size:141.68px;font-family:sans-serif;-inkscape-font-specification:'sans-serif Bold';text-anchor:start;fill:#000000;stroke:#000000;stroke-width:0"
         id="path508" />
      <path
         d="m 452.95637,136.40656 c 0,12.72907 -3.87406,22.4834 -11.62219,29.26301 -7.74812,6.77961 -18.09436,8.80132 -33.17553,8.80132 -15.08117,0 -27.71686,-3.1478 -35.46499,-9.92741 -7.702,-6.77961 -11.40037,-15.38479 -11.40037,-28.06774 V 70.685863 h 26.70336 v 64.267927 c 0,7.14857 1.49889,12.4754 4.49668,15.98051 2.99778,3.5051 7.86342,5.25765 14.59691,5.25765 6.64125,0 11.48382,-1.68337 14.52773,-5.05011 3.09003,-3.36675 4.63504,-8.76276 4.63504,-16.18805 V 70.685863 h 26.70336 z"
         style="font-style:normal;font-variant:normal;font-weight:bold;font-stretch:normal;font-size:141.68px;font-family:sans-serif;-inkscape-font-specification:'sans-serif Bold';text-anchor:start;fill:#000000;stroke:#000000;stroke-width:0"
         id="path510"
         sodipodi:nodetypes="ssscsccssscsccs" />
      <path
         d="m 571.53034,173.69441 h -25.59649 l -43.72156,-70.70163 v 70.70163 H 477.86104 V 70.685863 h 31.75348 l 37.56457,59.010267 V 70.685863 h 24.35125 z"
         style="font-style:normal;font-variant:normal;font-weight:bold;font-stretch:normal;font-size:141.68px;font-family:sans-serif;-inkscape-font-specification:'sans-serif Bold';text-anchor:start;fill:#000000;stroke:#000000;stroke-width:0"
         id="path512" />
    </g>
    <rect
       stroke="#000000"
       id="svg_4"
       height="106.22605"
       width="36.117661"
       y="86.31105"
       x="316.06238"
       fill-opacity="null"
       stroke-opacity="null"
       stroke-width="0"
       fill="#000000" />
    <g
       stroke="null"
       transform="matrix(0.73342788,0.06296543,-0.080075,0.57671684,137.39784,22.798671)"
       id="svg_14"
       style="fill:url(#meshgradient84);fill-opacity:1">
      <g
         stroke="null"
         transform="matrix(0.30298225,0,0,0.41880334,-1324.0538,-795.34552)"
         id="svg_9"
         style="fill:url(#meshgradient374);fill-opacity:1">
        <path
           stroke="#000000"
           fill="#ffffff"
           id="svg_10"
           d="m 5450.1333,2524.0398 -42.022,0 0.023,-61.764 c 0,-3.646 -1.966,-7.01 -5.145,-8.796 l -38.058,-21.386 v 0 c -1.851,-1.064 -3.962,-2.217 -6.199,-3.435 -15.641,-8.523 -40.413,-22.032 -49.672,-45.678 h 84.688 l 43.547,42.888 c 2.815,2.768 2.815,2.768 2.746,9.961 -0.01,1.106 -0.022,2.303 -0.022,3.608 l 0,15.79 c 0,5.569 4.515,10.084 10.084,10.084 5.569,0 10.084,-4.515 10.084,-10.084 v -15.79 c 0,-1.236 0.011,-2.369 0.021,-3.416 0.087,-9.151 0.15,-15.763 -8.769,-24.529 l -43.468,-42.811 0.06,-33.618 25.87,-0.021 c 11.648,-0.03 20.063,-0.053 29.732,-13.355 0.032,-0.044 0.063,-0.087 0.094,-0.131 l 16.9084,-26.2395 c -1.5075,-9.9843 -3.396,-23.0295 -5.9699,-39.2992 -1.5342,-9.6982 -3.2404,-19.3823 -3.7616,-22.6827 -1.3893,-8.9344 -0.7795,-4.5798 -1.6972,-12.3284 -13.5516,2.4375 3.5433,-0.6722 -5.2097,0.9488 -8.75,1.621 -16.327,6.547 -21.335,13.864 l -21.239,31.003 -17.815,-0.088 -21.907,-34.49 c 20.469,-13.125 36.188,-35.901 36.188,-63.003 0,-15.146 -4.527,-29.782 -12.9,-42.163 3.043,-2.995 5.68,-6.348 7.736,-10.109 4.658,-8.521 7.2868,-17.4548 -2.9072,-36.3758 -16.5577,1.1834 -65.1162,5.0493 -98.9115,7.6946 -25.495,9.055 -62.0543,32.7062 -37.0733,109.1952 0,0.012 0.01,0.022 0.011,0.034 0.019,0.058 0.036,0.113 0.054,0.17 0.085,0.262 0.182,0.517 0.287,0.768 0,0 0,0.01 0.01,0.013 6.013,14.248 14.551,25.297 25.329,32.979 l -13.803,19.946 -59.184,20.284 c -12.944,4.417 -21.969,16.576 -22.457,30.259 -0.8268,104.2891 -0.1044,-146.2009 -0.01,61.077 0,18.324 14.993,33.232 33.421,33.232 l 0.147,0 c 18.322,-0.083 33.163,-15.1 33.082,-33.47 l -0.141,-35.762 5.701,-1.953 9.455,47.86 c -3.9911,30.7284 -9.6456,51.7156 -13.612,70.695 l -54.216,18.152 c -0.052,0.018 -0.101,0.041 -0.152,0.06 -0.045,0.017 -0.091,0.026 -0.137,0.043 l -34.779,12.836 c -2.51,0.927 -4.549,2.813 -5.668,5.242 -1.119,2.431 -1.226,5.206 -0.298,7.716 l 29.887,80.827 c 1.024,2.768 3.209,4.95 5.98,5.968 1.126,0.414 2.303,0.618 3.477,0.618 1.712,0 3.417,-0.436 4.943,-1.294 19.529,-10.984 31.502,-28.972 31.043,-44.894 l 78.53,-27.133 c 11.751,-4.085 16.295,-10.716 19.457,-17.274 l 14.179,-29.442 17.286,9.95 c 0.786,0.452 1.607,0.785 2.443,1.008 l 3.867,2.173 -0.025,65.917 0,0.01 -0.113,37.885 c -0.01,2.681 1.052,5.253 2.943,7.151 1.892,1.897 4.461,2.964 7.141,2.964 h 88.84 c 4.44,0 8.357,-2.903 9.648,-7.151 3.034,-9.98 1.13,-19.986 -5.505,-28.939 -9.737,-13.139 -28.936,-21.963 -40.76,-21.963 z m -23.461,-237.021 c 3.315,0.029 6.479,-1.627 8.368,-4.385 l 24.263,-35.418 c 1.96,-2.863 9.3287,-5.7544 12.7657,-6.3914 0.1265,1.8194 3.2557,21.5197 3.1012,22.0101 l -27.8949,47.0573 c -3.602,4.956 -3.643,4.955 -13.406,4.981 l -25.801,0.02 0.05,-27.968 z m -28.95,-117.777 c 0,30.915 -29.371,54.895 -54.637,54.895 -9.248,0 -17.355,-1.587 -24.379,-4.786 -0.29,-0.154 -0.584,-0.294 -0.883,-0.417 -10,-4.813 -17.745,-12.991 -23.388,-24.643 4.49,-10.514 19.521,-40.908 43.759,-42.769 6.446,-0.491 30.331,-2.929 50.226,-12.932 6.037,9.019 9.302,19.65 9.302,30.652 z m -108.806,-35.764 c 4.686,-13.82 14.889,-23.351 31.192,-29.141 5.485,-1.948 11.417,-2.34 19.21,-2.34 1.501,0 3.025,0.013 4.576,0.025 1.664,0.015 3.358,0.028 5.087,0.028 13.941,0 29.245,-1.125 47.386,-8.4 1.297,5.14 0.848,9.648 -1.337,13.645 -7.707,14.101 -35.658,22.385 -58.372,24.115 -23.327,1.792 -39.637,18.778 -49.769,34.209 -1.697,-12.387 -1.024,-23.143 2.027,-32.141 z m -31.718,176.799 c -4.091,1.401 -6.833,5.256 -6.816,9.58 l 0.17,43.002 c 0.032,7.255 -5.803,13.184 -13.005,13.217 h -0.058 c -7.184,0 -13.254,-5.982 -13.254,-13.063 l 0,-38.534 c 0.036,-0.347 0.056,-0.698 0.056,-1.055 0,-0.357 -0.02,-0.708 -0.056,-1.055 l 0,-19.869 c 0.253,-5.233 3.855,-10.044 8.82,-11.738 l 60.811,-20.843 c 1.343,-0.459 2.736,-0.691 4.142,-0.691 5.628,0 10.622,3.576 12.425,8.898 2.331,6.878 -1.317,14.369 -8.138,16.701 z m 51.629,3.634 c 17.309,-5.919 26.599,-24.876 20.708,-42.258 -3.206,-9.461 -10.383,-16.734 -19.295,-20.255 l 7.504,-10.846 c 7.724,2.488 16.19,3.753 25.341,3.753 6.706,0 13.561,-1.16 20.27,-3.33 l 24.607,38.74 -0.08,45.276 c 0,0 0,10e-4 0,0 v 0 l -0.067,37.816 h -83.521 l -8.761,-44.348 z m -87.716,235.246 -21.825,-59.022 15.966,-5.892 16.316,42.612 c 1.779,4.644 -1.311,13.968 -10.457,22.302 z m 110.911,-73.429 c -1.74,3.61 -2.943,5.253 -7.893,6.974 l -77.605,26.813 -12.237,-31.96 49.823,-16.682 c 3.452,-1.156 6.013,-4.082 6.701,-7.656 l 8.814,-45.773 c 13.476,18.654 33.5,30.194 47.145,37.664 z m 76.002,86.197 0.053,-17.717 h 42.056 c 4.919,0 18.311,5.376 24.557,13.805 1.04,1.403 1.742,2.707 2.198,3.912 z"
           style="fill-opacity:1"
           sodipodi:nodetypes="cccccscccccssssscccccsccscccccccscsccccccccccccsccccccccccccccsccccccccccccsscsccccccccccccsscccccsssscsccccsccccsscsccccscccccccscccscccccccccccccccccccccsccc" />
        <path
           stroke="#000000"
           fill="#ffffff"
           id="svg_13"
           d="m 5450.1333,2483.8538 c -5.569,0 -10.084,4.515 -10.084,10.084 v 0.255 c 0,5.569 4.515,10.084 10.084,10.084 5.569,0 10.084,-4.515 10.084,-10.084 v -0.255 c 0,-5.57 -4.515,-10.084 -10.084,-10.084 z"
           style="fill-opacity:1" />
      </g>
    </g>
    <g
       aria-label="FUN"
       transform="matrix(0,0.88683184,-1.1276095,0,0,0)"
       id="text390"
       style="font-style:normal;font-variant:normal;font-weight:bold;font-stretch:normal;font-size:66.6481px;line-height:1.55;font-family:sans-serif;-inkscape-font-specification:'sans-serif Bold';fill:#000000;fill-opacity:1;stroke:none;stroke-width:1.66619">
      <path
         d="m 132.28769,-170.54234 h -22.29196 v 9.01442 h 20.66481 v 9.37238 h -20.66481 v 20.69736 H 97.564292 v -48.45655 h 34.723398 z"
         style="font-style:normal;font-variant:normal;font-weight:bold;font-stretch:normal;font-family:sans-serif;-inkscape-font-specification:'sans-serif Bold';fill:#000000;stroke-width:1.66619"
         id="path515" />
      <path
         d="m 183.34769,-148.99886 q 0,8.98187 -5.46723,13.76569 -5.46722,4.78383 -16.10879,4.78383 -10.64157,0 -16.1088,-4.78383 -5.43468,-4.78382 -5.43468,-13.73315 v -30.94841 h 12.56161 v 30.23246 q 0,5.04417 2.11529,7.51744 2.1153,2.47327 6.86658,2.47327 4.68619,0 6.83403,-2.37564 2.18038,-2.37564 2.18038,-7.61507 v -30.23246 h 12.56161 z"
         style="font-style:normal;font-variant:normal;font-weight:bold;font-stretch:normal;font-family:sans-serif;-inkscape-font-specification:'sans-serif Bold';fill:#000000;stroke-width:1.66619"
         id="path517" />
      <path
         d="m 239.12643,-131.45818 h -12.04092 l -20.56719,-33.25896 v 33.25896 h -11.45514 v -48.45655 h 14.93724 l 17.67086,27.75919 v -27.75919 h 11.45515 z"
         style="font-style:normal;font-variant:normal;font-weight:bold;font-stretch:normal;font-family:sans-serif;-inkscape-font-specification:'sans-serif Bold';fill:#000000;stroke-width:1.66619"
         id="path519" />
    </g>
    <g
       aria-label="BY FLEMMING"
       transform="scale(1.0081564,0.99190958)"
       id="text424"
       style="font-style:normal;font-variant:normal;font-weight:normal;font-stretch:normal;font-size:48.8308px;line-height:1.25;font-family:'Berlin Sans FB Demi';-inkscape-font-specification:'Berlin Sans FB Demi';fill:#666666;fill-opacity:1;stroke:none;stroke-width:1.22078">
      <path
         d="m 175.64153,242.01071 q 0,4.38714 -2.74197,7.27217 -3.12345,3.3142 -10.96785,3.3142 -0.59608,0 -1.71671,-0.0239 -1.14447,0 -1.69287,0 -8.79812,0 -10.46714,-0.35764 -0.69146,-0.14306 -0.69146,-0.73914 0,-2.55122 0.28612,-7.72519 0.30996,-5.17396 0.30996,-7.74903 0,-2.7658 -0.28612,-10.39561 -0.0715,-1.95514 -0.26227,-5.86542 l -0.0238,-0.33381 q -0.0239,-0.45302 0.73913,-0.54839 0.78683,-0.0954 5.53162,-0.0954 7.60597,0 8.8935,0.0477 5.86542,0.21459 8.65507,1.90746 3.69569,2.2651 3.69569,7.65365 0,1.40675 -0.85836,2.9804 -0.61992,1.12063 -1.62133,2.24126 -0.8822,0.97757 -0.8822,0.90604 0,0.1669 0.61992,0.52455 1.66903,0.95372 2.62275,3.02808 0.85836,1.85976 0.85836,3.95796 z m -10.25256,-13.4237 q 0,-2.05051 -2.05052,-2.71812 -1.14447,-0.35765 -3.76722,-0.35765 -2.57506,0 -2.57506,0.38149 0,0.45302 -0.0954,1.38291 -0.0715,0.90604 -0.0715,1.35906 0,2.38431 0.40533,2.67043 0.26228,0.21459 3.02809,0.21459 5.12628,0 5.12628,-2.93271 z m 0.71529,13.32833 q 0,-2.14589 -1.78824,-2.90887 -1.14447,-0.47686 -3.71953,-0.47686 -3.07577,0 -3.33804,0.23843 -0.26228,0.21459 -0.26228,2.90887 0,2.81349 0.30996,3.12345 0.30996,0.28612 3.43342,0.28612 2.57506,0 3.62416,-0.40533 1.74055,-0.69146 1.74055,-2.76581 z"
         style="font-style:normal;font-variant:normal;font-weight:normal;font-stretch:normal;font-family:'Berlin Sans FB Demi';-inkscape-font-specification:'Berlin Sans FB Demi';stroke-width:1.22078"
         id="path522" />
      <path
         d="m 205.99387,227.51407 q 0,1.02525 -0.38149,1.78824 -3.12345,6.17538 -8.51201,12.99452 -0.76298,1.00141 -0.76298,1.81208 0,1.26369 0.14306,3.79106 0.14306,2.52738 0.14306,3.76722 0,0.42918 -0.19075,0.52455 -0.0477,0.0238 -0.64376,0.11922 -0.85836,0.14306 -4.29177,0.14306 -3.45726,0 -4.41099,-0.14306 -0.66761,-0.0954 -0.66761,-0.69145 0,-1.26369 0.21459,-3.83875 0.21459,-2.59891 0.21459,-3.88644 0,-0.76298 -0.57223,-1.64518 -2.88503,-4.07718 -8.24974,-12.49381 -0.54839,-0.92989 -0.54839,-1.52597 0,-1.43059 -0.14306,-4.29177 -0.14306,-2.86118 -0.14306,-4.29177 0,-0.78682 0.47686,-0.78682 1.45444,0 4.41099,0.11922 2.95655,0.11921 4.43483,0.11921 0.54839,0 0.54839,0.35765 0,1.216 -0.11922,3.67185 -0.0954,2.432 -0.0954,3.648 0,0.7153 2.0982,3.57648 1.66902,2.24125 2.74196,3.45725 0.97757,-1.14447 2.59891,-3.43341 2.05051,-2.86118 2.05051,-3.45726 0,-1.19216 -0.19074,-3.60032 -0.16691,-2.432 -0.16691,-3.62416 0,-0.50071 0.21459,-0.57223 0,0 0.59608,0 1.43059,0 4.29177,-0.11922 2.88502,-0.14306 4.33946,-0.14306 0.47686,0 0.47686,1.02526 0,1.26368 0.0477,3.8149 0.0477,2.52738 0.0477,3.81491 z"
         style="font-style:normal;font-variant:normal;font-weight:normal;font-stretch:normal;font-family:'Berlin Sans FB Demi';-inkscape-font-specification:'Berlin Sans FB Demi';stroke-width:1.22078"
         id="path524" />
      <path
         d="m 245.81195,226.63187 q 0,0.26228 -0.47686,0.26228 -1.78824,0 -5.43624,-0.30996 -3.62416,-0.30997 -5.43624,-0.30997 -2.28894,0 -2.67044,0.16691 -0.88219,0.40533 -0.88219,2.28894 0,2.2651 1.14447,2.57506 0.47686,0.11922 1.45443,0.11922 1.64518,0 4.91169,-0.1669 3.29036,-0.19075 4.93554,-0.19075 0.78682,0 0.78682,4.1964 0,3.648 -0.26227,4.24408 -0.1669,0.42918 -0.64377,0.42918 0.30996,0 -1.50212,-0.16691 -2.55121,-0.23843 -7.72518,-0.23843 -1.66902,0 -1.88361,0.0238 -1.216,0.19074 -1.216,1.02525 0,3.38573 0.28612,7.79672 0.23843,3.98181 0.23843,3.55263 0,0.61992 -1.50212,0.71529 0.40533,-0.0238 -2.12204,-0.0238 -4.45868,0 -5.74621,-0.30996 -0.69145,-0.1669 -0.69145,-0.73914 0,-2.64659 0.1669,-7.93977 0.19075,-5.31703 0.19075,-7.96362 0,-3.1473 -0.28612,-7.91593 -0.42918,-7.36754 -0.45302,-7.91593 l -0.0238,-0.28612 q -0.0238,-0.59608 0.71529,-0.59608 1.7644,0 5.31703,0.0715 3.57647,0.0715 5.36471,0.0715 1.90745,0 5.72236,-0.28612 3.83875,-0.28611 5.7462,-0.28611 1.19216,0 1.33522,0.97757 0,1.02525 0.0954,3.07576 0.0477,0.52455 0.30996,2.02667 0.23843,1.31138 0.23843,2.02667 z"
         style="font-style:normal;font-variant:normal;font-weight:normal;font-stretch:normal;font-family:'Berlin Sans FB Demi';-inkscape-font-specification:'Berlin Sans FB Demi';stroke-width:1.22078"
         id="path526" />
      <path
         d="m 270.56116,252.71629 q -2.05051,0 -5.34087,-0.0954 -4.29177,-0.0954 -5.34087,-0.11922 l -7.12911,-0.0954 q -1.07294,0.0238 -3.07576,-0.0954 -0.69146,-0.11922 -0.69146,-0.73914 0,-2.5989 0.0715,-7.77287 0.0954,-5.19781 0.0954,-7.79672 0,-2.7658 -0.16691,-8.27357 -0.1669,-5.53162 -0.1669,-8.29742 0,-0.52455 0.7153,-0.52455 0.71529,0 2.12204,0.0715 1.43059,0.0715 2.12204,0.0715 0.78682,0 2.33663,-0.0715 1.54981,-0.0954 2.33663,-0.0954 0.35765,0 0.3338,0.45302 l -0.0238,0.30996 q -0.28612,4.48252 -0.64376,13.47139 l -0.0238,6.2946 q 0,3.05192 0.0238,4.45867 0.0238,0.28612 0.0477,0.57223 0.0238,0.28612 0.35765,0.35765 0.0238,0 0.61992,0 2.14589,0 6.41381,-0.21459 4.29177,-0.23843 6.43766,-0.23843 0.64376,0 0.64376,0.54839 0,4.07719 -0.59608,7.03374 -0.11921,0.61992 -0.5007,0.73914 -0.11922,0.0477 -0.97757,0.0477 z"
         style="font-style:normal;font-variant:normal;font-weight:normal;font-stretch:normal;font-family:'Berlin Sans FB Demi';-inkscape-font-specification:'Berlin Sans FB Demi';stroke-width:1.22078"
         id="path528" />
      <path
         d="m 299.76904,244.89573 q 0,1.02526 -0.40534,3.76722 -0.42918,2.9804 -0.76298,3.55264 -0.28612,0.45302 -0.78682,0.45302 -0.21459,0 -0.7153,-0.0715 -1.74055,-0.23843 -10.15719,-0.23843 -1.83592,0 -5.46008,-0.0239 -3.62416,-0.0238 -5.43624,-0.0238 -0.78683,0 -0.78683,-0.69145 0,-2.67044 0.28612,-8.01131 0.30996,-5.36471 0.30996,-8.03514 0,-2.71812 -0.28612,-10.13335 -0.0715,-1.90745 -0.26227,-5.69851 l -0.0238,-0.33381 q -0.0477,-0.54839 0.59608,-0.54839 1.76439,0 5.29318,0.0954 3.55263,0.0954 5.31702,0.0954 1.74055,0 5.2455,-0.0954 3.50494,-0.0954 5.2455,-0.0954 1.23984,0 1.43058,0.92988 0.11922,0.5484 0.35765,3.33805 0.26228,2.7658 0.26228,3.36188 0,0.50071 -0.47687,0.50071 -0.14306,0 -0.5007,-0.0238 -6.34228,-0.52455 -11.39703,-0.52455 -1.26369,0 -1.54981,0.59608 -0.11922,0.28611 -0.11922,1.83592 0,1.62133 0.47687,2.14588 0.40533,0.45302 1.5498,0.45302 0.23843,0 0.92989,-0.0238 0.69145,-0.0477 1.14447,-0.0477 3.00424,0 6.08,-0.1669 0.26228,-0.0238 1.31138,-0.11921 0.81067,-0.0954 1.28753,-0.0954 0.57224,0 0.57224,0.5484 0,-0.50071 -0.42918,3.648 -0.19075,1.90745 -0.19075,3.81491 0,0.47686 -0.69145,0.47686 0,0 -2.14588,-0.23843 -1.35906,-0.14306 -6.19923,-0.14306 h -2.52737 q -0.97757,0 -1.14447,0.47686 -0.0238,0.11922 -0.0238,1.47828 0,1.81208 0.23844,2.33663 0.40533,0.90604 3.05192,1.07294 -0.0477,0 3.4811,0 1.26369,0 3.74338,-0.21459 2.50353,-0.23843 3.74338,-0.23843 0.52455,0 0.52455,0.85835 z"
         style="font-style:normal;font-variant:normal;font-weight:normal;font-stretch:normal;font-family:'Berlin Sans FB Demi';-inkscape-font-specification:'Berlin Sans FB Demi';stroke-width:1.22078"
         id="path530" />
      <path
         d="m 338.46649,251.57182 q 0,0.73914 -0.69145,0.73914 h -8.44048 q -0.69145,0 -0.69145,-0.83451 0,-2.40816 0.1669,-7.22448 0.19075,-4.81632 0.19075,-7.22448 0,-0.69145 -0.21459,-0.73914 -0.26228,0.14306 -3.19499,7.36754 -1.71671,4.24408 -3.43341,8.46432 -0.23843,0.5484 -0.59608,0.64377 -0.11922,0.0238 -0.95373,0.0238 -1.23984,0 -1.47827,-0.47686 -1.28754,-2.62275 -3.38573,-7.62981 -2.24126,-5.29319 -3.36189,-7.65366 -0.0477,-0.11921 -0.21459,-0.26227 -0.1669,0.21458 -0.1669,0.69145 0,2.33663 0.11922,7.00989 0.11921,4.67326 0.11921,7.00989 0,0.83451 -0.66761,0.83451 h -7.96361 q -0.47687,0 -0.59608,-0.14306 -0.0954,-0.1669 -0.0954,-0.54839 0,-2.59891 0.23844,-7.79672 0.26227,-5.22165 0.26227,-7.82056 0,-2.7658 -0.23843,-10.37177 -0.0238,-1.97898 -0.21459,-5.88926 l -0.0238,-0.40534 q -0.0238,-0.47686 1.00141,-0.47686 1.31137,0 3.93412,-0.0715 2.62275,-0.0954 3.93412,-0.0954 0.26228,0 0.73914,1.00141 l 6.96221,15.28347 q 0.73913,1.5498 1.23984,1.5498 0.26228,0 1.12063,-1.78823 2.40816,-5.00707 7.12911,-15.09273 0.40533,-0.92988 0.88219,-0.92988 0.69145,0 2.07436,0.0715 1.40674,0.0715 2.12204,0.0715 0.59608,0 1.81208,-0.11922 1.23984,-0.11921 1.83592,-0.11921 0.7153,0 0.7153,0.57223 0,2.8135 -0.21459,8.41664 -0.19075,5.5793 -0.19075,8.39279 0,2.59891 0.21459,7.79672 0.21459,5.19781 0.21459,7.77287 z"
         style="font-style:normal;font-variant:normal;font-weight:normal;font-stretch:normal;font-family:'Berlin Sans FB Demi';-inkscape-font-specification:'Berlin Sans FB Demi';stroke-width:1.22078"
         id="path532" />
      <path
         d="m 378.42763,251.57182 q 0,0.73914 -0.69145,0.73914 h -8.44048 q -0.69146,0 -0.69146,-0.83451 0,-2.40816 0.16691,-7.22448 0.19074,-4.81632 0.19074,-7.22448 0,-0.69145 -0.21459,-0.73914 -0.26227,0.14306 -3.19498,7.36754 -1.71671,4.24408 -3.43342,8.46432 -0.23843,0.5484 -0.59608,0.64377 -0.11921,0.0238 -0.95372,0.0238 -1.23985,0 -1.47828,-0.47686 -1.28753,-2.62275 -3.38573,-7.62981 -2.24126,-5.29319 -3.36188,-7.65366 -0.0477,-0.11921 -0.21459,-0.26227 -0.1669,0.21458 -0.1669,0.69145 0,2.33663 0.11921,7.00989 0.11922,4.67326 0.11922,7.00989 0,0.83451 -0.66761,0.83451 h -7.96362 q -0.47686,0 -0.59608,-0.14306 -0.0954,-0.1669 -0.0954,-0.54839 0,-2.59891 0.23843,-7.79672 0.26228,-5.22165 0.26228,-7.82056 0,-2.7658 -0.23844,-10.37177 -0.0238,-1.97898 -0.21458,-5.88926 l -0.0238,-0.40534 q -0.0238,-0.47686 1.00142,-0.47686 1.31137,0 3.93412,-0.0715 2.62275,-0.0954 3.93412,-0.0954 0.26227,0 0.73914,1.00141 l 6.9622,15.28347 q 0.73914,1.5498 1.23985,1.5498 0.26227,0 1.12063,-1.78823 2.40815,-5.00707 7.1291,-15.09273 0.40533,-0.92988 0.8822,-0.92988 0.69145,0 2.07435,0.0715 1.40675,0.0715 2.12204,0.0715 0.59608,0 1.81209,-0.11922 1.23984,-0.11921 1.83592,-0.11921 0.71529,0 0.71529,0.57223 0,2.8135 -0.21458,8.41664 -0.19075,5.5793 -0.19075,8.39279 0,2.59891 0.21459,7.79672 0.21459,5.19781 0.21459,7.77287 z"
         style="font-style:normal;font-variant:normal;font-weight:normal;font-stretch:normal;font-family:'Berlin Sans FB Demi';-inkscape-font-specification:'Berlin Sans FB Demi';stroke-width:1.22078"
         id="path534" />
      <path
         d="m 392.51895,234.69086 q 0,2.81349 0.14305,8.46432 0.14306,5.65083 0.14306,8.46433 0,0.47686 -0.21458,0.59608 -0.0477,0.0238 -0.61993,0.0954 -1.5498,0.19074 -4.14871,0.19074 -3.4811,0 -4.43483,-0.19074 -0.69145,-0.14306 -0.69145,-0.73914 0,0.38149 0.21459,-4.1964 0.42918,-9.65648 0.42918,-12.68456 0,-2.55122 -0.1669,-7.65365 -0.16691,-5.10244 -0.16691,-7.65366 0,-0.52455 0.5484,-0.52455 0.73913,0 2.21741,0.0715 1.50212,0.0715 2.24126,0.0715 0.73914,0 2.16973,-0.0715 1.45443,-0.0715 2.19357,-0.0715 0.69145,0 0.69145,0.52455 0,2.55122 -0.28612,7.65366 -0.26227,5.10243 -0.26227,7.65365 z"
         style="font-style:normal;font-variant:normal;font-weight:normal;font-stretch:normal;font-family:'Berlin Sans FB Demi';-inkscape-font-specification:'Berlin Sans FB Demi';stroke-width:1.22078"
         id="path536" />
      <path
         d="m 429.33278,219.59814 q 0,2.71812 -0.23843,8.1782 -0.21459,5.43624 -0.21459,8.17821 v 15.71264 q 0,0.64377 -0.69145,0.64377 -0.57223,0 -1.74055,0.0477 -1.14447,0.0477 -1.71671,0.0477 -0.61992,0 -1.85976,-0.0954 -1.23985,-0.0954 -1.85977,-0.0954 -0.42918,0 -1.02526,-0.78683 -1.7167,-2.31279 -7.72518,-10.25256 -1.64518,-2.21741 -5.00706,-6.53303 -0.0954,-0.14305 -0.35765,-0.28611 -0.19075,0.1669 -0.19075,0.52455 0,2.7658 0.14306,8.29742 0.1669,5.53161 0.1669,8.29742 0,0.83451 -0.64376,0.83451 h -8.24974 q -0.69145,0 -0.69145,-0.73914 0,-2.57506 0.23843,-7.77287 0.26228,-5.19781 0.26228,-7.79672 0,-2.74196 -0.23843,-8.20204 -0.21459,-5.46009 -0.21459,-8.17821 0,-0.52455 0.92988,-0.52455 1.3829,0 3.40957,-0.19074 0.47687,-0.0477 1.88361,-0.30996 1.19216,-0.21459 1.88361,-0.21459 0.28612,0 0.8822,0.81066 l 8.8935,12.18386 q 1.19216,1.64518 3.60032,4.81632 0.59608,0.73914 1.02525,0.73914 0.30997,0 0.30997,-1.85977 0,-2.50353 -0.28612,-7.53444 -0.26228,-5.03091 -0.26228,-7.55828 0,-0.8822 0.50071,-0.8822 1.43059,0 4.31561,-0.11921 2.88502,-0.11922 4.31561,-0.11922 0.45302,0 0.45302,0.73914 z"
         style="font-style:normal;font-variant:normal;font-weight:normal;font-stretch:normal;font-family:'Berlin Sans FB Demi';-inkscape-font-specification:'Berlin Sans FB Demi';stroke-width:1.22078"
         id="path538" />
      <path
         d="m 465.14523,251.54798 q 0.0477,0.64376 -0.66761,0.64376 -0.45302,0 -2.62275,-0.52455 -2.14589,-0.52455 -2.64659,-0.71529 -4.98322,1.95514 -9.56111,1.95514 -7.36754,0 -12.08849,-4.91169 -4.67326,-4.84017 -4.67326,-12.23155 0,-7.55828 4.53021,-12.5415 4.67326,-5.15012 12.13617,-5.15012 3.62416,0 6.81914,1.3829 3.45726,1.52596 5.43624,4.29177 0.40534,0.57223 0.40534,0.81067 0,0.76298 -2.14589,3.43341 -2.12204,2.64659 -2.74196,2.64659 -0.14306,0 -1.09679,-0.97757 -1.16831,-1.16831 -2.38431,-1.81208 -1.81208,-0.97757 -4.00566,-0.97757 -3.57647,0 -5.67467,2.67044 -1.95514,2.45584 -1.95514,6.12769 0,3.88644 2.02667,6.15154 2.0982,2.33663 5.93695,2.33663 2.432,0 5.43624,-1.216 -0.0715,-0.78683 -0.42918,-4.00566 -0.30996,-2.47968 -0.30996,-4.00565 0,-0.45302 0.30996,-0.54839 0.11922,-0.0477 0.38149,-0.0477 0.69146,0 2.07436,0.14306 1.40675,0.11922 2.12204,0.11922 0.76298,0 2.28894,-0.0954 1.52597,-0.11922 2.28895,-0.11922 0.59608,0 0.59608,0.78682 0,1.14448 -0.14306,3.45726 -0.11922,2.31279 -0.11922,3.45726 0,3.07577 0.45302,9.20346 z"
         style="font-style:normal;font-variant:normal;font-weight:normal;font-stretch:normal;font-family:'Berlin Sans FB Demi';-inkscape-font-specification:'Berlin Sans FB Demi';stroke-width:1.22078"
         id="path540" />
    </g>
    <rect
       style="fill:#ffffff"
       id="rect428"
       width="0.25"
       height="0.0625"
       x="347.70117"
       y="213.27795"
       ry="0.03125" />
  </g>
  <script
     type="text/javascript"
     id="mesh_polyfill">
!function(){const t=&quot;http://www.w3.org/2000/svg&quot;,e=&quot;http://www.w3.org/1999/xlink&quot;,s=&quot;http://www.w3.org/1999/xhtml&quot;,r=2;if(document.createElementNS(t,&quot;meshgradient&quot;).x)return;const n=(t,e,s,r)=&gt;{let n=new x(.5*(e.x+s.x),.5*(e.y+s.y)),o=new x(.5*(t.x+e.x),.5*(t.y+e.y)),i=new x(.5*(s.x+r.x),.5*(s.y+r.y)),a=new x(.5*(n.x+o.x),.5*(n.y+o.y)),h=new x(.5*(n.x+i.x),.5*(n.y+i.y)),l=new x(.5*(a.x+h.x),.5*(a.y+h.y));return[[t,o,a,l],[l,h,i,r]]},o=t=&gt;{let e=t[0].distSquared(t[1]),s=t[2].distSquared(t[3]),r=.25*t[0].distSquared(t[2]),n=.25*t[1].distSquared(t[3]),o=e&gt;s?e:s,i=r&gt;n?r:n;return 18*(o&gt;i?o:i)},i=(t,e)=&gt;Math.sqrt(t.distSquared(e)),a=(t,e)=&gt;t.scale(2/3).add(e.scale(1/3)),h=t=&gt;{let e,s,r,n,o,i,a,h=new g;return t.match(/(\w+\(\s*[^)]+\))+/g).forEach(t=&gt;{let l=t.match(/[\w.-]+/g),d=l.shift();switch(d){case&quot;translate&quot;:2===l.length?e=new g(1,0,0,1,l[0],l[1]):(console.error(&quot;mesh.js: translate does not have 2 arguments!&quot;),e=new g(1,0,0,1,0,0)),h=h.append(e);break;case&quot;scale&quot;:1===l.length?s=new g(l[0],0,0,l[0],0,0):2===l.length?s=new g(l[0],0,0,l[1],0,0):(console.error(&quot;mesh.js: scale does not have 1 or 2 arguments!&quot;),s=new g(1,0,0,1,0,0)),h=h.append(s);break;case&quot;rotate&quot;:if(3===l.length&amp;&amp;(e=new g(1,0,0,1,l[1],l[2]),h=h.append(e)),l[0]){r=l[0]*Math.PI/180;let t=Math.cos(r),e=Math.sin(r);Math.abs(t)&lt;1e-16&amp;&amp;(t=0),Math.abs(e)&lt;1e-16&amp;&amp;(e=0),a=new g(t,e,-e,t,0,0),h=h.append(a)}else console.error(&quot;math.js: No argument to rotate transform!&quot;);3===l.length&amp;&amp;(e=new g(1,0,0,1,-l[1],-l[2]),h=h.append(e));break;case&quot;skewX&quot;:l[0]?(r=l[0]*Math.PI/180,n=Math.tan(r),o=new g(1,0,n,1,0,0),h=h.append(o)):console.error(&quot;math.js: No argument to skewX transform!&quot;);break;case&quot;skewY&quot;:l[0]?(r=l[0]*Math.PI/180,n=Math.tan(r),i=new g(1,n,0,1,0,0),h=h.append(i)):console.error(&quot;math.js: No argument to skewY transform!&quot;);break;case&quot;matrix&quot;:6===l.length?h=h.append(new g(...l)):console.error(&quot;math.js: Incorrect number of arguments for matrix!&quot;);break;default:console.error(&quot;mesh.js: Unhandled transform type: &quot;+d)}}),h},l=t=&gt;{let e=[],s=t.split(/[ ,]+/);for(let t=0,r=s.length-1;t&lt;r;t+=2)e.push(new x(parseFloat(s[t]),parseFloat(s[t+1])));return e},d=(t,e)=&gt;{for(let s in e)t.setAttribute(s,e[s])},c=(t,e,s,r,n)=&gt;{let o,i,a=[0,0,0,0];for(let h=0;h&lt;3;++h)e[h]&lt;t[h]&amp;&amp;e[h]&lt;s[h]||t[h]&lt;e[h]&amp;&amp;s[h]&lt;e[h]?a[h]=0:(a[h]=.5*((e[h]-t[h])/r+(s[h]-e[h])/n),o=Math.abs(3*(e[h]-t[h])/r),i=Math.abs(3*(s[h]-e[h])/n),a[h]&gt;o?a[h]=o:a[h]&gt;i&amp;&amp;(a[h]=i));return a},u=[[1,0,0,0,0,0,0,0,0,0,0,0,0,0,0,0],[0,0,0,0,1,0,0,0,0,0,0,0,0,0,0,0],[-3,3,0,0,-2,-1,0,0,0,0,0,0,0,0,0,0],[2,-2,0,0,1,1,0,0,0,0,0,0,0,0,0,0],[0,0,0,0,0,0,0,0,1,0,0,0,0,0,0,0],[0,0,0,0,0,0,0,0,0,0,0,0,1,0,0,0],[0,0,0,0,0,0,0,0,-3,3,0,0,-2,-1,0,0],[0,0,0,0,0,0,0,0,2,-2,0,0,1,1,0,0],[-3,0,3,0,0,0,0,0,-2,0,-1,0,0,0,0,0],[0,0,0,0,-3,0,3,0,0,0,0,0,-2,0,-1,0],[9,-9,-9,9,6,3,-6,-3,6,-6,3,-3,4,2,2,1],[-6,6,6,-6,-3,-3,3,3,-4,4,-2,2,-2,-2,-1,-1],[2,0,-2,0,0,0,0,0,1,0,1,0,0,0,0,0],[0,0,0,0,2,0,-2,0,0,0,0,0,1,0,1,0],[-6,6,6,-6,-4,-2,4,2,-3,3,-3,3,-2,-1,-2,-1],[4,-4,-4,4,2,2,-2,-2,2,-2,2,-2,1,1,1,1]],f=t=&gt;{let e=[];for(let s=0;s&lt;16;++s){e[s]=0;for(let r=0;r&lt;16;++r)e[s]+=u[s][r]*t[r]}return e},p=(t,e,s)=&gt;{const r=e*e,n=s*s,o=e*e*e,i=s*s*s;return t[0]+t[1]*e+t[2]*r+t[3]*o+t[4]*s+t[5]*s*e+t[6]*s*r+t[7]*s*o+t[8]*n+t[9]*n*e+t[10]*n*r+t[11]*n*o+t[12]*i+t[13]*i*e+t[14]*i*r+t[15]*i*o},y=t=&gt;{let e=[],s=[],r=[];for(let s=0;s&lt;4;++s)e[s]=[],e[s][0]=n(t[0][s],t[1][s],t[2][s],t[3][s]),e[s][1]=[],e[s][1].push(...n(...e[s][0][0])),e[s][1].push(...n(...e[s][0][1])),e[s][2]=[],e[s][2].push(...n(...e[s][1][0])),e[s][2].push(...n(...e[s][1][1])),e[s][2].push(...n(...e[s][1][2])),e[s][2].push(...n(...e[s][1][3]));for(let t=0;t&lt;8;++t){s[t]=[];for(let r=0;r&lt;4;++r)s[t][r]=[],s[t][r][0]=n(e[0][2][t][r],e[1][2][t][r],e[2][2][t][r],e[3][2][t][r]),s[t][r][1]=[],s[t][r][1].push(...n(...s[t][r][0][0])),s[t][r][1].push(...n(...s[t][r][0][1])),s[t][r][2]=[],s[t][r][2].push(...n(...s[t][r][1][0])),s[t][r][2].push(...n(...s[t][r][1][1])),s[t][r][2].push(...n(...s[t][r][1][2])),s[t][r][2].push(...n(...s[t][r][1][3]))}for(let t=0;t&lt;8;++t){r[t]=[];for(let e=0;e&lt;8;++e)r[t][e]=[],r[t][e][0]=s[t][0][2][e],r[t][e][1]=s[t][1][2][e],r[t][e][2]=s[t][2][2][e],r[t][e][3]=s[t][3][2][e]}return r};class x{constructor(t,e){this.x=t||0,this.y=e||0}toString(){return`(x=${this.x}, y=${this.y})`}clone(){return new x(this.x,this.y)}add(t){return new x(this.x+t.x,this.y+t.y)}scale(t){return void 0===t.x?new x(this.x*t,this.y*t):new x(this.x*t.x,this.y*t.y)}distSquared(t){let e=this.x-t.x,s=this.y-t.y;return e*e+s*s}transform(t){let e=this.x*t.a+this.y*t.c+t.e,s=this.x*t.b+this.y*t.d+t.f;return new x(e,s)}}class g{constructor(t,e,s,r,n,o){void 0===t?(this.a=1,this.b=0,this.c=0,this.d=1,this.e=0,this.f=0):(this.a=t,this.b=e,this.c=s,this.d=r,this.e=n,this.f=o)}toString(){return`affine: ${this.a} ${this.c} ${this.e} \n       ${this.b} ${this.d} ${this.f}`}append(t){t instanceof g||console.error(&quot;mesh.js: argument to Affine.append is not affine!&quot;);let e=this.a*t.a+this.c*t.b,s=this.b*t.a+this.d*t.b,r=this.a*t.c+this.c*t.d,n=this.b*t.c+this.d*t.d,o=this.a*t.e+this.c*t.f+this.e,i=this.b*t.e+this.d*t.f+this.f;return new g(e,s,r,n,o,i)}}class w{constructor(t,e){this.nodes=t,this.colors=e}paintCurve(t,e){if(o(this.nodes)&gt;r){const s=n(...this.nodes);let r=[[],[]],o=[[],[]];for(let t=0;t&lt;4;++t)r[0][t]=this.colors[0][t],r[1][t]=(this.colors[0][t]+this.colors[1][t])/2,o[0][t]=r[1][t],o[1][t]=this.colors[1][t];let i=new w(s[0],r),a=new w(s[1],o);i.paintCurve(t,e),a.paintCurve(t,e)}else{let s=Math.round(this.nodes[0].x);if(s&gt;=0&amp;&amp;s&lt;e){let r=4*(~~this.nodes[0].y*e+s);t[r]=Math.round(this.colors[0][0]),t[r+1]=Math.round(this.colors[0][1]),t[r+2]=Math.round(this.colors[0][2]),t[r+3]=Math.round(this.colors[0][3])}}}}class m{constructor(t,e){this.nodes=t,this.colors=e}split(){let t=[[],[],[],[]],e=[[],[],[],[]],s=[[[],[]],[[],[]]],r=[[[],[]],[[],[]]];for(let s=0;s&lt;4;++s){const r=n(this.nodes[0][s],this.nodes[1][s],this.nodes[2][s],this.nodes[3][s]);t[0][s]=r[0][0],t[1][s]=r[0][1],t[2][s]=r[0][2],t[3][s]=r[0][3],e[0][s]=r[1][0],e[1][s]=r[1][1],e[2][s]=r[1][2],e[3][s]=r[1][3]}for(let t=0;t&lt;4;++t)s[0][0][t]=this.colors[0][0][t],s[0][1][t]=this.colors[0][1][t],s[1][0][t]=(this.colors[0][0][t]+this.colors[1][0][t])/2,s[1][1][t]=(this.colors[0][1][t]+this.colors[1][1][t])/2,r[0][0][t]=s[1][0][t],r[0][1][t]=s[1][1][t],r[1][0][t]=this.colors[1][0][t],r[1][1][t]=this.colors[1][1][t];return[new m(t,s),new m(e,r)]}paint(t,e){let s,n=!1;for(let t=0;t&lt;4;++t)if((s=o([this.nodes[0][t],this.nodes[1][t],this.nodes[2][t],this.nodes[3][t]]))&gt;r){n=!0;break}if(n){let s=this.split();s[0].paint(t,e),s[1].paint(t,e)}else{new w([...this.nodes[0]],[...this.colors[0]]).paintCurve(t,e)}}}class b{constructor(t){this.readMesh(t),this.type=t.getAttribute(&quot;type&quot;)||&quot;bilinear&quot;}readMesh(t){let e=[[]],s=[[]],r=Number(t.getAttribute(&quot;x&quot;)),n=Number(t.getAttribute(&quot;y&quot;));e[0][0]=new x(r,n);let o=t.children;for(let t=0,r=o.length;t&lt;r;++t){e[3*t+1]=[],e[3*t+2]=[],e[3*t+3]=[],s[t+1]=[];let r=o[t].children;for(let n=0,o=r.length;n&lt;o;++n){let o=r[n].children;for(let r=0,i=o.length;r&lt;i;++r){let i=r;0!==t&amp;&amp;++i;let h,d=o[r].getAttribute(&quot;path&quot;),c=&quot;l&quot;;null!=d&amp;&amp;(c=(h=d.match(/\s*([lLcC])\s*(.*)/))[1]);let u=l(h[2]);switch(c){case&quot;l&quot;:0===i?(e[3*t][3*n+3]=u[0].add(e[3*t][3*n]),e[3*t][3*n+1]=a(e[3*t][3*n],e[3*t][3*n+3]),e[3*t][3*n+2]=a(e[3*t][3*n+3],e[3*t][3*n])):1===i?(e[3*t+3][3*n+3]=u[0].add(e[3*t][3*n+3]),e[3*t+1][3*n+3]=a(e[3*t][3*n+3],e[3*t+3][3*n+3]),e[3*t+2][3*n+3]=a(e[3*t+3][3*n+3],e[3*t][3*n+3])):2===i?(0===n&amp;&amp;(e[3*t+3][3*n+0]=u[0].add(e[3*t+3][3*n+3])),e[3*t+3][3*n+1]=a(e[3*t+3][3*n],e[3*t+3][3*n+3]),e[3*t+3][3*n+2]=a(e[3*t+3][3*n+3],e[3*t+3][3*n])):(e[3*t+1][3*n]=a(e[3*t][3*n],e[3*t+3][3*n]),e[3*t+2][3*n]=a(e[3*t+3][3*n],e[3*t][3*n]));break;case&quot;L&quot;:0===i?(e[3*t][3*n+3]=u[0],e[3*t][3*n+1]=a(e[3*t][3*n],e[3*t][3*n+3]),e[3*t][3*n+2]=a(e[3*t][3*n+3],e[3*t][3*n])):1===i?(e[3*t+3][3*n+3]=u[0],e[3*t+1][3*n+3]=a(e[3*t][3*n+3],e[3*t+3][3*n+3]),e[3*t+2][3*n+3]=a(e[3*t+3][3*n+3],e[3*t][3*n+3])):2===i?(0===n&amp;&amp;(e[3*t+3][3*n+0]=u[0]),e[3*t+3][3*n+1]=a(e[3*t+3][3*n],e[3*t+3][3*n+3]),e[3*t+3][3*n+2]=a(e[3*t+3][3*n+3],e[3*t+3][3*n])):(e[3*t+1][3*n]=a(e[3*t][3*n],e[3*t+3][3*n]),e[3*t+2][3*n]=a(e[3*t+3][3*n],e[3*t][3*n]));break;case&quot;c&quot;:0===i?(e[3*t][3*n+1]=u[0].add(e[3*t][3*n]),e[3*t][3*n+2]=u[1].add(e[3*t][3*n]),e[3*t][3*n+3]=u[2].add(e[3*t][3*n])):1===i?(e[3*t+1][3*n+3]=u[0].add(e[3*t][3*n+3]),e[3*t+2][3*n+3]=u[1].add(e[3*t][3*n+3]),e[3*t+3][3*n+3]=u[2].add(e[3*t][3*n+3])):2===i?(e[3*t+3][3*n+2]=u[0].add(e[3*t+3][3*n+3]),e[3*t+3][3*n+1]=u[1].add(e[3*t+3][3*n+3]),0===n&amp;&amp;(e[3*t+3][3*n+0]=u[2].add(e[3*t+3][3*n+3]))):(e[3*t+2][3*n]=u[0].add(e[3*t+3][3*n]),e[3*t+1][3*n]=u[1].add(e[3*t+3][3*n]));break;case&quot;C&quot;:0===i?(e[3*t][3*n+1]=u[0],e[3*t][3*n+2]=u[1],e[3*t][3*n+3]=u[2]):1===i?(e[3*t+1][3*n+3]=u[0],e[3*t+2][3*n+3]=u[1],e[3*t+3][3*n+3]=u[2]):2===i?(e[3*t+3][3*n+2]=u[0],e[3*t+3][3*n+1]=u[1],0===n&amp;&amp;(e[3*t+3][3*n+0]=u[2])):(e[3*t+2][3*n]=u[0],e[3*t+1][3*n]=u[1]);break;default:console.error(&quot;mesh.js: &quot;+c+&quot; invalid path type.&quot;)}if(0===t&amp;&amp;0===n||r&gt;0){let e=window.getComputedStyle(o[r]).stopColor.match(/^rgb\s*\(\s*(\d+)\s*,\s*(\d+)\s*,\s*(\d+)\s*\)$/i),a=window.getComputedStyle(o[r]).stopOpacity,h=255;a&amp;&amp;(h=Math.floor(255*a)),e&amp;&amp;(0===i?(s[t][n]=[],s[t][n][0]=Math.floor(e[1]),s[t][n][1]=Math.floor(e[2]),s[t][n][2]=Math.floor(e[3]),s[t][n][3]=h):1===i?(s[t][n+1]=[],s[t][n+1][0]=Math.floor(e[1]),s[t][n+1][1]=Math.floor(e[2]),s[t][n+1][2]=Math.floor(e[3]),s[t][n+1][3]=h):2===i?(s[t+1][n+1]=[],s[t+1][n+1][0]=Math.floor(e[1]),s[t+1][n+1][1]=Math.floor(e[2]),s[t+1][n+1][2]=Math.floor(e[3]),s[t+1][n+1][3]=h):3===i&amp;&amp;(s[t+1][n]=[],s[t+1][n][0]=Math.floor(e[1]),s[t+1][n][1]=Math.floor(e[2]),s[t+1][n][2]=Math.floor(e[3]),s[t+1][n][3]=h))}}e[3*t+1][3*n+1]=new x,e[3*t+1][3*n+2]=new x,e[3*t+2][3*n+1]=new x,e[3*t+2][3*n+2]=new x,e[3*t+1][3*n+1].x=(-4*e[3*t][3*n].x+6*(e[3*t][3*n+1].x+e[3*t+1][3*n].x)+-2*(e[3*t][3*n+3].x+e[3*t+3][3*n].x)+3*(e[3*t+3][3*n+1].x+e[3*t+1][3*n+3].x)+-1*e[3*t+3][3*n+3].x)/9,e[3*t+1][3*n+2].x=(-4*e[3*t][3*n+3].x+6*(e[3*t][3*n+2].x+e[3*t+1][3*n+3].x)+-2*(e[3*t][3*n].x+e[3*t+3][3*n+3].x)+3*(e[3*t+3][3*n+2].x+e[3*t+1][3*n].x)+-1*e[3*t+3][3*n].x)/9,e[3*t+2][3*n+1].x=(-4*e[3*t+3][3*n].x+6*(e[3*t+3][3*n+1].x+e[3*t+2][3*n].x)+-2*(e[3*t+3][3*n+3].x+e[3*t][3*n].x)+3*(e[3*t][3*n+1].x+e[3*t+2][3*n+3].x)+-1*e[3*t][3*n+3].x)/9,e[3*t+2][3*n+2].x=(-4*e[3*t+3][3*n+3].x+6*(e[3*t+3][3*n+2].x+e[3*t+2][3*n+3].x)+-2*(e[3*t+3][3*n].x+e[3*t][3*n+3].x)+3*(e[3*t][3*n+2].x+e[3*t+2][3*n].x)+-1*e[3*t][3*n].x)/9,e[3*t+1][3*n+1].y=(-4*e[3*t][3*n].y+6*(e[3*t][3*n+1].y+e[3*t+1][3*n].y)+-2*(e[3*t][3*n+3].y+e[3*t+3][3*n].y)+3*(e[3*t+3][3*n+1].y+e[3*t+1][3*n+3].y)+-1*e[3*t+3][3*n+3].y)/9,e[3*t+1][3*n+2].y=(-4*e[3*t][3*n+3].y+6*(e[3*t][3*n+2].y+e[3*t+1][3*n+3].y)+-2*(e[3*t][3*n].y+e[3*t+3][3*n+3].y)+3*(e[3*t+3][3*n+2].y+e[3*t+1][3*n].y)+-1*e[3*t+3][3*n].y)/9,e[3*t+2][3*n+1].y=(-4*e[3*t+3][3*n].y+6*(e[3*t+3][3*n+1].y+e[3*t+2][3*n].y)+-2*(e[3*t+3][3*n+3].y+e[3*t][3*n].y)+3*(e[3*t][3*n+1].y+e[3*t+2][3*n+3].y)+-1*e[3*t][3*n+3].y)/9,e[3*t+2][3*n+2].y=(-4*e[3*t+3][3*n+3].y+6*(e[3*t+3][3*n+2].y+e[3*t+2][3*n+3].y)+-2*(e[3*t+3][3*n].y+e[3*t][3*n+3].y)+3*(e[3*t][3*n+2].y+e[3*t+2][3*n].y)+-1*e[3*t][3*n].y)/9}}this.nodes=e,this.colors=s}paintMesh(t,e){let s=(this.nodes.length-1)/3,r=(this.nodes[0].length-1)/3;if(&quot;bilinear&quot;===this.type||s&lt;2||r&lt;2){let n;for(let o=0;o&lt;s;++o)for(let s=0;s&lt;r;++s){let r=[];for(let t=3*o,e=3*o+4;t&lt;e;++t)r.push(this.nodes[t].slice(3*s,3*s+4));let i=[];i.push(this.colors[o].slice(s,s+2)),i.push(this.colors[o+1].slice(s,s+2)),(n=new m(r,i)).paint(t,e)}}else{let n,o,a,h,l,d,u;const x=s,g=r;s++,r++;let w=new Array(s);for(let t=0;t&lt;s;++t){w[t]=new Array(r);for(let e=0;e&lt;r;++e)w[t][e]=[],w[t][e][0]=this.nodes[3*t][3*e],w[t][e][1]=this.colors[t][e]}for(let t=0;t&lt;s;++t)for(let e=0;e&lt;r;++e)0!==t&amp;&amp;t!==x&amp;&amp;(n=i(w[t-1][e][0],w[t][e][0]),o=i(w[t+1][e][0],w[t][e][0]),w[t][e][2]=c(w[t-1][e][1],w[t][e][1],w[t+1][e][1],n,o)),0!==e&amp;&amp;e!==g&amp;&amp;(n=i(w[t][e-1][0],w[t][e][0]),o=i(w[t][e+1][0],w[t][e][0]),w[t][e][3]=c(w[t][e-1][1],w[t][e][1],w[t][e+1][1],n,o));for(let t=0;t&lt;r;++t){w[0][t][2]=[],w[x][t][2]=[];for(let e=0;e&lt;4;++e)n=i(w[1][t][0],w[0][t][0]),o=i(w[x][t][0],w[x-1][t][0]),w[0][t][2][e]=n&gt;0?2*(w[1][t][1][e]-w[0][t][1][e])/n-w[1][t][2][e]:0,w[x][t][2][e]=o&gt;0?2*(w[x][t][1][e]-w[x-1][t][1][e])/o-w[x-1][t][2][e]:0}for(let t=0;t&lt;s;++t){w[t][0][3]=[],w[t][g][3]=[];for(let e=0;e&lt;4;++e)n=i(w[t][1][0],w[t][0][0]),o=i(w[t][g][0],w[t][g-1][0]),w[t][0][3][e]=n&gt;0?2*(w[t][1][1][e]-w[t][0][1][e])/n-w[t][1][3][e]:0,w[t][g][3][e]=o&gt;0?2*(w[t][g][1][e]-w[t][g-1][1][e])/o-w[t][g-1][3][e]:0}for(let s=0;s&lt;x;++s)for(let r=0;r&lt;g;++r){let n=i(w[s][r][0],w[s+1][r][0]),o=i(w[s][r+1][0],w[s+1][r+1][0]),c=i(w[s][r][0],w[s][r+1][0]),x=i(w[s+1][r][0],w[s+1][r+1][0]),g=[[],[],[],[]];for(let t=0;t&lt;4;++t){(d=[])[0]=w[s][r][1][t],d[1]=w[s+1][r][1][t],d[2]=w[s][r+1][1][t],d[3]=w[s+1][r+1][1][t],d[4]=w[s][r][2][t]*n,d[5]=w[s+1][r][2][t]*n,d[6]=w[s][r+1][2][t]*o,d[7]=w[s+1][r+1][2][t]*o,d[8]=w[s][r][3][t]*c,d[9]=w[s+1][r][3][t]*x,d[10]=w[s][r+1][3][t]*c,d[11]=w[s+1][r+1][3][t]*x,d[12]=0,d[13]=0,d[14]=0,d[15]=0,u=f(d);for(let e=0;e&lt;9;++e){g[t][e]=[];for(let s=0;s&lt;9;++s)g[t][e][s]=p(u,e/8,s/8),g[t][e][s]&gt;255?g[t][e][s]=255:g[t][e][s]&lt;0&amp;&amp;(g[t][e][s]=0)}}h=[];for(let t=3*s,e=3*s+4;t&lt;e;++t)h.push(this.nodes[t].slice(3*r,3*r+4));l=y(h);for(let s=0;s&lt;8;++s)for(let r=0;r&lt;8;++r)(a=new m(l[s][r],[[[g[0][s][r],g[1][s][r],g[2][s][r],g[3][s][r]],[g[0][s][r+1],g[1][s][r+1],g[2][s][r+1],g[3][s][r+1]]],[[g[0][s+1][r],g[1][s+1][r],g[2][s+1][r],g[3][s+1][r]],[g[0][s+1][r+1],g[1][s+1][r+1],g[2][s+1][r+1],g[3][s+1][r+1]]]])).paint(t,e)}}}transform(t){if(t instanceof x)for(let e=0,s=this.nodes.length;e&lt;s;++e)for(let s=0,r=this.nodes[0].length;s&lt;r;++s)this.nodes[e][s]=this.nodes[e][s].add(t);else if(t instanceof g)for(let e=0,s=this.nodes.length;e&lt;s;++e)for(let s=0,r=this.nodes[0].length;s&lt;r;++s)this.nodes[e][s]=this.nodes[e][s].transform(t)}scale(t){for(let e=0,s=this.nodes.length;e&lt;s;++e)for(let s=0,r=this.nodes[0].length;s&lt;r;++s)this.nodes[e][s]=this.nodes[e][s].scale(t)}}document.querySelectorAll(&quot;rect,circle,ellipse,path,text&quot;).forEach((r,n)=&gt;{let o=r.getAttribute(&quot;id&quot;);o||(o=&quot;patchjs_shape&quot;+n,r.setAttribute(&quot;id&quot;,o));const i=r.style.fill.match(/^url\(\s*&quot;?\s*#([^\s&quot;]+)&quot;?\s*\)/),a=r.style.stroke.match(/^url\(\s*&quot;?\s*#([^\s&quot;]+)&quot;?\s*\)/);if(i&amp;&amp;i[1]){const a=document.getElementById(i[1]);if(a&amp;&amp;&quot;meshgradient&quot;===a.nodeName){const i=r.getBBox();let l=document.createElementNS(s,&quot;canvas&quot;);d(l,{width:i.width,height:i.height});const c=l.getContext(&quot;2d&quot;);let u=c.createImageData(i.width,i.height);const f=new b(a);&quot;objectBoundingBox&quot;===a.getAttribute(&quot;gradientUnits&quot;)&amp;&amp;f.scale(new x(i.width,i.height));const p=a.getAttribute(&quot;gradientTransform&quot;);null!=p&amp;&amp;f.transform(h(p)),&quot;userSpaceOnUse&quot;===a.getAttribute(&quot;gradientUnits&quot;)&amp;&amp;f.transform(new x(-i.x,-i.y)),f.paintMesh(u.data,l.width),c.putImageData(u,0,0);const y=document.createElementNS(t,&quot;image&quot;);d(y,{width:i.width,height:i.height,x:i.x,y:i.y});let g=l.toDataURL();y.setAttributeNS(e,&quot;xlink:href&quot;,g),r.parentNode.insertBefore(y,r),r.style.fill=&quot;none&quot;;const w=document.createElementNS(t,&quot;use&quot;);w.setAttributeNS(e,&quot;xlink:href&quot;,&quot;#&quot;+o);const m=&quot;patchjs_clip&quot;+n,M=document.createElementNS(t,&quot;clipPath&quot;);M.setAttribute(&quot;id&quot;,m),M.appendChild(w),r.parentElement.insertBefore(M,r),y.setAttribute(&quot;clip-path&quot;,&quot;url(#&quot;+m+&quot;)&quot;),u=null,l=null,g=null}}if(a&amp;&amp;a[1]){const o=document.getElementById(a[1]);if(o&amp;&amp;&quot;meshgradient&quot;===o.nodeName){const i=parseFloat(r.style.strokeWidth.slice(0,-2))*(parseFloat(r.style.strokeMiterlimit)||parseFloat(r.getAttribute(&quot;stroke-miterlimit&quot;))||1),a=r.getBBox(),l=Math.trunc(a.width+i),c=Math.trunc(a.height+i),u=Math.trunc(a.x-i/2),f=Math.trunc(a.y-i/2);let p=document.createElementNS(s,&quot;canvas&quot;);d(p,{width:l,height:c});const y=p.getContext(&quot;2d&quot;);let g=y.createImageData(l,c);const w=new b(o);&quot;objectBoundingBox&quot;===o.getAttribute(&quot;gradientUnits&quot;)&amp;&amp;w.scale(new x(l,c));const m=o.getAttribute(&quot;gradientTransform&quot;);null!=m&amp;&amp;w.transform(h(m)),&quot;userSpaceOnUse&quot;===o.getAttribute(&quot;gradientUnits&quot;)&amp;&amp;w.transform(new x(-u,-f)),w.paintMesh(g.data,p.width),y.putImageData(g,0,0);const M=document.createElementNS(t,&quot;image&quot;);d(M,{width:l,height:c,x:0,y:0});let S=p.toDataURL();M.setAttributeNS(e,&quot;xlink:href&quot;,S);const k=&quot;pattern_clip&quot;+n,A=document.createElementNS(t,&quot;pattern&quot;);d(A,{id:k,patternUnits:&quot;userSpaceOnUse&quot;,width:l,height:c,x:u,y:f}),A.appendChild(M),o.parentNode.appendChild(A),r.style.stroke=&quot;url(#&quot;+k+&quot;)&quot;,g=null,p=null,S=null}}})}();
</script>
</svg>
